<svg id="svg" version="1.1" width="400" height="565.678449258837" viewBox="0 0 400 565.678449258837" xmlns="http://www.w3.org/2000/svg" xmlns:xlink="http://www.w3.org/1999/xlink" ><g id="svgg"><path id="path0" d="" stroke="none" fill="#000000" fill-rule="evenodd"></path><path id="path1" d="" stroke="none" fill="#ffffff" fill-rule="evenodd"></path><path id="path2" d="M0.000 114.859 L 0.000 150.519 3.123 152.500 C 8.521 155.923,20.960 164.035,24.278 166.295 C 31.144 170.972,32.412 171.861,38.360 176.161 C 40.128 177.440,42.125 178.872,42.798 179.343 C 45.785 181.437,58.473 190.585,63.877 194.542 C 71.262 199.949,72.475 200.829,75.781 203.180 C 79.227 205.631,94.611 215.910,94.832 215.910 C 94.911 215.910,95.907 216.531,97.046 217.289 C 98.185 218.047,99.381 218.806,99.705 218.977 C 100.029 219.148,101.143 219.836,102.180 220.507 C 103.217 221.179,104.649 222.050,105.362 222.445 C 106.075 222.840,107.613 223.723,108.780 224.408 C 112.705 226.711,117.248 229.221,121.980 231.699 C 123.536 232.513,126.134 233.896,127.755 234.772 C 140.803 241.823,153.969 248.191,171.243 255.807 C 173.447 256.779,176.258 258.020,177.490 258.565 C 183.055 261.027,190.943 264.259,199.411 267.545 C 211.119 272.088,233.166 279.216,244.998 282.282 C 254.344 284.705,258.690 285.715,268.238 287.686 C 275.354 289.155,291.459 292.065,296.877 292.860 C 297.395 292.937,298.786 293.153,299.968 293.342 C 321.068 296.713,343.867 297.049,372.186 294.405 C 379.257 293.745,389.864 292.652,391.514 292.413 C 392.821 292.224,399.699 291.338,399.857 291.338 C 399.936 291.338,400.000 277.962,400.000 261.615 L 400.000 231.892 398.645 232.025 C 394.515 232.429,378.960 233.230,370.654 233.466 C 368.061 233.540,365.357 233.648,364.643 233.705 C 358.418 234.209,329.179 234.313,321.509 233.859 C 307.263 233.015,288.298 230.482,268.120 226.728 C 245.534 222.526,214.985 212.963,195.757 204.076 C 184.611 198.924,168.398 190.043,151.444 179.803 C 141.453 173.768,130.077 166.274,121.509 160.084 C 120.342 159.241,119.069 158.331,118.680 158.061 C 117.260 157.078,106.548 149.016,102.534 145.910 C 100.265 144.154,97.791 142.242,97.036 141.659 C 94.962 140.061,92.320 138.007,89.322 135.661 C 81.717 129.709,67.991 119.598,60.566 114.478 C 36.855 98.127,26.006 91.290,14.887 85.692 C 9.640 83.050,0.885 79.199,0.127 79.199 C 0.057 79.199,0.000 95.246,0.000 114.859 M398.114 336.494 C 397.637 336.603,391.525 337.150,381.143 338.013 C 330.016 342.259,310.987 346.102,270.477 360.359 C 265.376 362.154,258.227 364.845,255.038 366.171 C 253.677 366.737,251.291 367.729,249.735 368.376 C 244.817 370.420,242.062 371.607,238.303 373.300 C 233.662 375.391,219.972 381.852,215.654 383.990 C 213.842 384.887,212.316 385.622,212.264 385.622 C 212.211 385.622,207.521 387.915,201.841 390.718 C 177.382 402.790,172.634 405.121,168.061 407.302 C 165.404 408.569,162.062 410.163,160.636 410.844 C 157.165 412.500,153.543 414.184,140.719 420.108 C 137.892 421.413,127.003 426.304,124.337 427.465 C 122.781 428.142,120.925 428.965,120.212 429.292 C 103.207 437.105,80.832 445.293,68.141 448.345 C 46.124 453.641,29.930 455.807,10.666 456.033 L 0.000 456.157 0.000 486.680 L 0.000 517.202 5.480 517.055 C 23.782 516.562,34.421 516.004,46.671 514.894 C 54.615 514.175,64.730 513.175,65.527 513.031 C 65.852 512.973,66.806 512.860,67.649 512.781 C 68.491 512.702,71.461 512.376,74.249 512.056 C 77.036 511.736,82.711 511.110,86.859 510.663 C 91.008 510.216,94.773 509.796,95.227 509.730 C 95.681 509.664,96.529 509.557,97.113 509.493 C 114.563 507.589,127.966 505.123,140.719 501.471 C 149.599 498.929,170.730 491.665,181.025 487.617 C 191.815 483.375,194.493 482.276,202.829 478.675 C 206.588 477.051,211.074 475.123,212.797 474.392 C 214.520 473.661,216.376 472.862,216.922 472.615 C 217.468 472.368,219.452 471.509,221.332 470.705 C 223.212 469.901,225.174 469.052,225.692 468.819 C 227.493 468.008,238.628 463.294,245.963 460.238 C 248.038 459.373,252.174 457.709,255.156 456.539 C 263.237 453.370,270.651 450.436,271.184 450.197 C 272.805 449.472,294.054 441.032,300.766 438.448 C 305.224 436.732,311.278 434.510,315.616 432.997 C 336.595 425.679,342.372 423.682,348.386 421.670 C 352.215 420.389,356.404 419.030,357.697 418.651 C 358.990 418.272,361.532 417.519,363.347 416.979 C 372.611 414.219,384.472 411.195,394.697 408.985 L 399.882 407.865 399.942 372.111 L 400.002 336.358 399.235 336.386 C 398.813 336.401,398.309 336.449,398.114 336.494 " stroke="none" fill="#e84545" fill-rule="evenodd"></path><path id="path3" d="M355.745 233.987 C 355.972 234.046,356.344 234.046,356.570 233.987 C 356.797 233.928,356.612 233.879,356.158 233.879 C 355.704 233.879,355.519 233.928,355.745 233.987 M332.061 234.231 C 332.484 234.283,333.121 234.282,333.475 234.229 C 333.829 234.175,333.483 234.132,332.705 234.133 C 331.927 234.134,331.637 234.178,332.061 234.231 M343.724 234.229 C 344.081 234.283,344.664 234.283,345.021 234.229 C 345.377 234.175,345.085 234.131,344.372 234.131 C 343.659 234.131,343.368 234.175,343.724 234.229 M349.381 295.979 C 349.608 296.038,349.979 296.038,350.206 295.979 C 350.433 295.919,350.247 295.871,349.794 295.871 C 349.340 295.871,349.154 295.919,349.381 295.979 M332.059 296.219 C 332.353 296.275,332.777 296.273,333.002 296.214 C 333.228 296.155,332.988 296.109,332.469 296.111 C 331.951 296.114,331.766 296.162,332.059 296.219 M341.842 296.221 C 342.200 296.275,342.730 296.274,343.020 296.218 C 343.310 296.162,343.017 296.118,342.369 296.119 C 341.721 296.121,341.483 296.167,341.842 296.221 M6.072 517.079 C 6.365 517.135,6.790 517.133,7.015 517.074 C 7.240 517.015,7.001 516.969,6.482 516.972 C 5.963 516.974,5.779 517.023,6.072 517.079 " stroke="none" fill="#ff0000" fill-rule="evenodd"></path><path id="path4" d="" stroke="none" fill="#ff8080" fill-rule="evenodd"></path></g></svg>